<svg xmlns="http://www.w3.org/2000/svg" viewBox="15 10 75 80" fill="#C9A96E">
  <g data-name="Capa 2">
    <path d="M81.5 80.36L79.17 78a1 1 0 0 0-1.43 1.43l.6.6H27V19.12l.6.6a1 1 0 0 0 .71.3 1 1 0 0 0 .69-1.73L26.69 16a1 1 0 0 0-1.43 0l-2.33 2.33a1 1 0 0 0 1.43 1.43l.6-.6v60.9h-2.09a1 1 0 1 0 0 2H25v1.29a1 1 0 0 0 2 0v-1.27h51.34l-.6.6a1 1 0 0 0 0 1.44 1 1 0 0 0 .71.29 1 1 0 0 0 .72-.29l2.33-2.33a1 1 0 0 0 0-1.43z"/>
    <path d="M57 23h-1.1v-1.81a2 2 0 0 0-2-2h-3.5v-1.91a1.87 1.87 0 0 0-1.87-1.87h-2.06a1.87 1.87 0 0 0-1.86 1.87v1.89h-3.49a2 2 0 0 0-2 2V23H38a1.4 1.4 0 0 0-1.39 1.4v17a1 1 0 0 0 2 0V25h17.8v41a1 1 0 0 0 2 0V24.4A1.4 1.4 0 0 0 57 23zm-10.36-5.56h1.73v1.73h-1.73zM53.87 23H41.13v-1.8h12.74z"/>
    <path d="M43 28.46a1 1 0 0 0-2 0v1.22a1 1 0 0 0 2 0zm5.52 0a1 1 0 0 0-2 0v1.22a1 1 0 0 0 2 0zm5.48 0a1 1 0 0 0-2 0v1.22a1 1 0 0 0 2 0zM43 34.6a1 1 0 0 0-2 0v1.22a1 1 0 0 0 2 0zm5.52 0a1 1 0 0 0-2 0v1.22a1 1 0 0 0 2 0zm5.48 0a1 1 0 0 0-2 0v1.22a1 1 0 0 0 2 0zm-11 6.14a1 1 0 1 0-2 0V42a1 1 0 0 0 2 0zm5.52 0a1 1 0 0 0-2 0V42a1 1 0 0 0 2 0zm5.48 0a1 1 0 0 0-2 0V42a1 1 0 0 0 2 0zm-11 6.14a1 1 0 0 0-2 0v1.22a1 1 0 1 0 2 0zm5.52 0a1 1 0 0 0-2 0v1.22a1 1 0 1 0 2 0zm5.48 0a1 1 0 0 0-2 0v1.22a1 1 0 1 0 2 0zM43 53a1 1 0 1 0-2 0v1.21a1 1 0 1 0 2 0zm5.52 0a1 1 0 1 0-2 0v1.21a1 1 0 1 0 2 0zM54 53a1 1 0 1 0-2 0v1.21a1 1 0 1 0 2 0zm-12 5.15a1 1 0 0 0-1 1v1.22a1 1 0 0 0 2 0v-1.2a1 1 0 0 0-1-1zm5.5 0a1 1 0 0 0-1 1v1.22a1 1 0 0 0 2 0v-1.2a1 1 0 0 0-1-1zm5.5 0a1 1 0 0 0-1 1v1.22a1 1 0 0 0 2 0v-1.2a1 1 0 0 0-1-1z"/>
    <path d="M62.91 72h-4.48v-2a1 1 0 1 0-2 0v2h-5.37v-6.35a1.83 1.83 0 0 0-1.83-1.82h-3.46A1.83 1.83 0 0 0 44 65.65V72h-5.4V45.44a1 1 0 0 0-2 0V72h-3.69a1.67 1.67 0 0 0-1.67 1.67v2.62A1.67 1.67 0 0 0 32.91 78h30a1.67 1.67 0 0 0 1.67-1.67v-2.66A1.67 1.67 0 0 0 62.91 72zM46 65.86h3V72h-3zm16.55 10.08H33.26V74h29.29z"/>
  </g>
</svg>
