<svg xmlns="http://www.w3.org/2000/svg" id="SvgjsSvg22954" width="4096" height="2632.8479193752646" version="1.1" xmlns:xlink="http://www.w3.org/1999/xlink" xmlns:svgjs="http://svgjs.com/svgjs"><defs id="SvgjsDefs22955"></defs><g id="SvgjsG22956" transform="translate(328, 328.0000000000001) scale(34.4)" opacity="1"><defs id="SvgjsDefs6549"></defs><g id="SvgjsG6550" transform="scale(0.21645021645021648)" opacity="1"><g id="SvgjsG6551" class="U3DkWev38" transform="translate(110.32989686606122, -40.29081321063546) scale(2.6145887871924383)" light-content="false" non-strokable="false" fill="#000000"><g data-name="Capa 2"><path d="M81.5 80.36L79.17 78a1 1 0 0 0-1.43 1.43l.6.6H27V19.12l.6.6a1 1 0 0 0 .71.3 1 1 0 0 0 .69-1.73L26.69 16a1 1 0 0 0-1.43 0l-2.33 2.33a1 1 0 0 0 1.43 1.43l.6-.6v60.9h-2.09a1 1 0 1 0 0 2H25v1.29a1 1 0 0 0 2 0v-1.27h51.34l-.6.6a1 1 0 0 0 0 1.44 1 1 0 0 0 .71.29 1 1 0 0 0 .72-.29l2.33-2.33a1 1 0 0 0 0-1.43z"></path><path d="M57 23h-1.1v-1.81a2 2 0 0 0-2-2h-3.5v-1.91a1.87 1.87 0 0 0-1.87-1.87h-2.06a1.87 1.87 0 0 0-1.86 1.87v1.89h-3.49a2 2 0 0 0-2 2V23H38a1.4 1.4 0 0 0-1.39 1.4v17a1 1 0 0 0 2 0V25h17.8v41a1 1 0 0 0 2 0V24.4A1.4 1.4 0 0 0 57 23zm-10.36-5.56h1.73v1.73h-1.73zM53.87 23H41.13v-1.8h12.74z"></path><path d="M43 28.46a1 1 0 0 0-2 0v1.22a1 1 0 0 0 2 0zm5.52 0a1 1 0 0 0-2 0v1.22a1 1 0 0 0 2 0zm5.48 0a1 1 0 0 0-2 0v1.22a1 1 0 0 0 2 0zM43 34.6a1 1 0 0 0-2 0v1.22a1 1 0 0 0 2 0zm5.52 0a1 1 0 0 0-2 0v1.22a1 1 0 0 0 2 0zm5.48 0a1 1 0 0 0-2 0v1.22a1 1 0 0 0 2 0zm-11 6.14a1 1 0 1 0-2 0V42a1 1 0 0 0 2 0zm5.52 0a1 1 0 0 0-2 0V42a1 1 0 0 0 2 0zm5.48 0a1 1 0 0 0-2 0V42a1 1 0 0 0 2 0zm-11 6.14a1 1 0 0 0-2 0v1.22a1 1 0 1 0 2 0zm5.52 0a1 1 0 0 0-2 0v1.22a1 1 0 1 0 2 0zm5.48 0a1 1 0 0 0-2 0v1.22a1 1 0 1 0 2 0zM43 53a1 1 0 1 0-2 0v1.21a1 1 0 1 0 2 0zm5.52 0a1 1 0 1 0-2 0v1.21a1 1 0 1 0 2 0zM54 53a1 1 0 1 0-2 0v1.21a1 1 0 1 0 2 0zm-12 5.15a1 1 0 0 0-1 1v1.22a1 1 0 0 0 2 0v-1.2a1 1 0 0 0-1-1zm5.5 0a1 1 0 0 0-1 1v1.22a1 1 0 0 0 2 0v-1.2a1 1 0 0 0-1-1zm5.5 0a1 1 0 0 0-1 1v1.22a1 1 0 0 0 2 0v-1.2a1 1 0 0 0-1-1z"></path><path d="M62.91 72h-4.48v-2a1 1 0 1 0-2 0v2h-5.37v-6.35a1.83 1.83 0 0 0-1.83-1.82h-3.46A1.83 1.83 0 0 0 44 65.65V72h-5.4V45.44a1 1 0 0 0-2 0V72h-3.69a1.67 1.67 0 0 0-1.67 1.67v2.62A1.67 1.67 0 0 0 32.91 78h30a1.67 1.67 0 0 0 1.67-1.67v-2.66A1.67 1.67 0 0 0 62.91 72zM46 65.86h3V72h-3zm16.55 10.08H33.26V74h29.29z"></path></g></g><g id="SvgjsG6552" class="text" transform="translate(231.77, 223.3528323932481) scale(1)" light-content="false" fill="#191818"><path d="M-231.77 -29.91L-227.54 -29.91L-227.54 -2.6L-231.77 -2.6L-231.77 0L-220.62 0L-220.62 -2.6L-224.57 -2.6L-224.57 -23.32C-224.57 -23.35 -224.58 -23.68 -224.59 -24.32C-224.61 -24.95 -224.61 -25.63 -224.61 -26.34L-224.61 -29.22L-224.15 -29.22L-222.11 -23.78L-212.82 -6.97L-209.98 -6.97L-200.46 -23.78L-198.46 -28.75L-198.04 -28.75C-198.07 -27.86 -198.11 -27.02 -198.14 -26.24C-198.17 -25.59 -198.19 -24.98 -198.21 -24.41C-198.22 -23.84 -198.25 -23.47 -198.28 -23.32L-198.28 -2.6L-202.5 -2.6L-202.5 0L-189.03 0L-189.03 -2.6L-193.26 -2.6L-193.26 -29.91L-189.03 -29.91L-189.03 -32.52L-199.02 -32.52L-210.21 -11.71L-221.18 -32.52L-231.77 -32.52Z M-176.17 0L-176.17 -2.6L-180.16 -2.6L-177 -10.78L-164.65 -10.78L-161.63 -2.6L-165.76 -2.6L-165.76 0L-152.48 0L-152.48 -2.6L-155.96 -2.6L-166.97 -32.52L-171.89 -32.52L-183.92 -2.6L-187.55 -2.6L-187.55 0ZM-175.93 -13.38L-171.94 -24.02L-170.59 -29.03L-170.41 -29.03L-169.24 -24.11L-165.44 -13.38Z M-146.62 -4.55L-146.62 -10.08L-149.6 -10.08L-149.6 -1.63C-148.85 -1.1 -147.68 -0.6 -146.07 -0.14C-144.46 0.33 -142.55 0.56 -140.35 0.56C-136.33 0.56 -133.15 -0.24 -130.83 -1.83C-128.51 -3.43 -127.35 -5.73 -127.35 -8.73C-127.35 -10.44 -127.77 -11.86 -128.62 -13.01C-129.47 -14.15 -130.54 -15.14 -131.81 -15.96C-133.07 -16.78 -134.45 -17.5 -135.94 -18.14C-137.43 -18.77 -138.8 -19.43 -140.07 -20.11C-141.34 -20.79 -142.4 -21.56 -143.26 -22.41C-144.11 -23.26 -144.53 -24.32 -144.53 -25.59C-144.53 -27.14 -144.01 -28.34 -142.95 -29.19C-141.9 -30.05 -140.45 -30.47 -138.59 -30.47C-137.5 -30.47 -136.4 -30.41 -135.29 -30.29C-134.17 -30.16 -133.32 -29.98 -132.73 -29.73L-131.99 -28.57L-131.99 -23.55L-129.02 -23.55L-129.02 -31.54C-130.1 -32 -131.42 -32.38 -132.97 -32.66C-134.51 -32.93 -136.36 -33.07 -138.49 -33.07C-141.9 -33.07 -144.6 -32.34 -146.6 -30.87C-148.6 -29.4 -149.6 -27.34 -149.6 -24.71C-149.6 -22.92 -149.17 -21.43 -148.32 -20.25C-147.47 -19.08 -146.41 -18.07 -145.14 -17.23C-143.87 -16.4 -142.49 -15.67 -141 -15.05C-139.52 -14.43 -138.14 -13.8 -136.87 -13.15C-135.6 -12.5 -134.54 -11.75 -133.69 -10.92C-132.83 -10.08 -132.41 -9.03 -132.41 -7.76C-132.41 -6.77 -132.61 -5.91 -133.01 -5.2C-133.42 -4.49 -133.97 -3.9 -134.69 -3.44C-135.4 -2.97 -136.23 -2.62 -137.17 -2.39C-138.11 -2.16 -139.14 -2.04 -140.26 -2.04C-141.44 -2.04 -142.51 -2.18 -143.49 -2.44C-144.46 -2.7 -145.23 -3.03 -145.79 -3.44Z M-101.19 0L-101.19 -2.6L-105.98 -2.6L-105.98 -29.91L-97.66 -29.91L-96.73 -28.89L-96.73 -22.9L-93.39 -22.9L-93.39 -32.52L-123.77 -32.52L-123.77 -22.9L-120.42 -22.9L-120.42 -28.89L-119.5 -29.91L-111.18 -29.91L-111.18 -2.6L-115.97 -2.6L-115.97 0Z M-66.17 -32.52L-90.88 -32.52L-90.88 -29.91L-86.65 -29.91L-86.65 -2.6L-90.88 -2.6L-90.88 0L-65.38 0L-65.38 -8.08L-68.35 -8.08L-68.35 -3.53L-69.28 -2.6L-81.45 -2.6L-81.45 -15.28L-73.6 -15.28L-72.91 -14.54L-72.91 -12.59L-69.93 -12.59L-69.93 -20.53L-72.91 -20.53L-72.91 -18.58L-73.6 -17.88L-81.45 -17.88L-81.45 -29.91L-70.07 -29.91L-69.14 -28.89L-69.14 -24.9L-66.17 -24.9Z M-51.49 -2.6L-51.49 -14.03L-46.75 -14.03L-37.51 0L-29.98 0L-29.98 -2.6L-32.86 -2.6L-42.11 -14.68C-39.88 -15.33 -38.07 -16.44 -36.7 -18C-35.32 -19.56 -34.63 -21.46 -34.63 -23.69C-34.63 -25.3 -34.95 -26.69 -35.58 -27.85C-36.22 -29.01 -37.08 -29.96 -38.16 -30.7C-39.24 -31.45 -40.54 -32 -42.04 -32.35C-43.54 -32.71 -45.14 -32.89 -46.85 -32.89C-48.43 -32.89 -50.04 -32.83 -51.68 -32.7C-53.32 -32.58 -54.84 -32.52 -56.23 -32.52L-60.92 -32.52L-60.92 -29.91L-56.69 -29.91L-56.69 -2.6L-60.92 -2.6L-60.92 0L-47.5 0L-47.5 -2.6ZM-47.82 -16.44L-51.49 -16.44L-51.49 -30.01C-51.06 -30.07 -50.57 -30.13 -50.03 -30.19C-49.49 -30.26 -48.81 -30.29 -48.01 -30.29C-45.65 -30.29 -43.76 -29.76 -42.34 -28.71C-40.92 -27.65 -40.2 -25.98 -40.2 -23.69C-40.2 -21.46 -40.88 -19.7 -42.22 -18.39C-43.57 -17.09 -45.44 -16.44 -47.82 -16.44Z M-10.94 -4.55L-10.94 -10.08L-13.91 -10.08L-13.91 -1.63C-13.17 -1.1 -11.99 -0.6 -10.38 -0.14C-8.77 0.33 -6.87 0.56 -4.67 0.56C-0.64 0.56 2.53 -0.24 4.85 -1.83C7.18 -3.43 8.34 -5.73 8.34 -8.73C8.34 -10.44 7.91 -11.86 7.06 -13.01C6.21 -14.15 5.15 -15.14 3.88 -15.96C2.61 -16.78 1.23 -17.5 -0.26 -18.14C-1.74 -18.77 -3.12 -19.43 -4.39 -20.11C-5.66 -20.79 -6.72 -21.56 -7.57 -22.41C-8.42 -23.26 -8.85 -24.32 -8.85 -25.59C-8.85 -27.14 -8.32 -28.34 -7.27 -29.19C-6.22 -30.05 -4.76 -30.47 -2.9 -30.47C-1.82 -30.47 -0.72 -30.41 0.39 -30.29C1.51 -30.16 2.36 -29.98 2.95 -29.73L3.69 -28.57L3.69 -23.55L6.67 -23.55L6.67 -31.54C5.58 -32 4.27 -32.38 2.72 -32.66C1.17 -32.93 -0.67 -33.07 -2.81 -33.07C-6.22 -33.07 -8.92 -32.34 -10.92 -30.87C-12.91 -29.4 -13.91 -27.34 -13.91 -24.71C-13.91 -22.92 -13.49 -21.43 -12.63 -20.25C-11.78 -19.08 -10.72 -18.07 -9.45 -17.23C-8.18 -16.4 -6.81 -15.67 -5.32 -15.05C-3.83 -14.43 -2.45 -13.8 -1.18 -13.15C0.09 -12.5 1.15 -11.75 2 -10.92C2.85 -10.08 3.27 -9.03 3.27 -7.76C3.27 -6.77 3.07 -5.91 2.67 -5.2C2.27 -4.49 1.71 -3.9 1 -3.44C0.29 -2.97 -0.54 -2.62 -1.49 -2.39C-2.43 -2.16 -3.46 -2.04 -4.58 -2.04C-5.75 -2.04 -6.83 -2.18 -7.8 -2.44C-8.78 -2.7 -9.55 -3.03 -10.1 -3.44Z M12.38 -29.91L16.61 -29.91L16.61 -2.6L12.38 -2.6L12.38 0L26.45 0L26.45 -2.6L21.81 -2.6L21.81 -12.63C21.99 -12.6 22.27 -12.57 22.64 -12.54C23.02 -12.51 23.41 -12.49 23.83 -12.47C24.25 -12.46 24.64 -12.45 25.01 -12.45L25.85 -12.45C27.68 -12.45 29.45 -12.65 31.17 -13.05C32.89 -13.46 34.4 -14.07 35.72 -14.91C37.04 -15.75 38.1 -16.82 38.9 -18.14C39.71 -19.46 40.11 -21.03 40.11 -22.85C40.11 -24.77 39.72 -26.38 38.93 -27.66C38.14 -28.95 37.11 -29.98 35.84 -30.75C34.57 -31.52 33.11 -32.07 31.47 -32.4C29.83 -32.72 28.16 -32.89 26.45 -32.89C24.94 -32.89 23.36 -32.83 21.74 -32.7C20.11 -32.58 18.6 -32.52 17.21 -32.52L12.38 -32.52ZM21.81 -15.28L21.81 -30.01C22.24 -30.1 22.74 -30.17 23.3 -30.22C23.85 -30.26 24.55 -30.29 25.39 -30.29C28.14 -30.29 30.32 -29.68 31.91 -28.47C33.51 -27.27 34.3 -25.39 34.3 -22.85C34.3 -21.46 34.07 -20.27 33.61 -19.28C33.14 -18.29 32.51 -17.48 31.7 -16.86C30.9 -16.24 29.96 -15.79 28.89 -15.49C27.82 -15.2 26.69 -15.05 25.48 -15.05L24.67 -15.05C24.31 -15.05 23.95 -15.07 23.57 -15.1C23.2 -15.13 22.85 -15.15 22.53 -15.17C22.2 -15.18 21.96 -15.22 21.81 -15.28Z M49.4 0L49.4 -2.6L45.41 -2.6L48.56 -10.78L60.92 -10.78L63.94 -2.6L59.81 -2.6L59.81 0L73.09 0L73.09 -2.6L69.61 -2.6L58.6 -32.52L53.67 -32.52L41.64 -2.6L38.02 -2.6L38.02 0ZM49.63 -13.38L53.63 -24.02L54.97 -29.03L55.16 -29.03L56.32 -24.11L60.13 -13.38Z M96.78 -8.55L96.78 -4.23L96.13 -3.34C95.76 -3.07 95.19 -2.84 94.44 -2.67C93.68 -2.5 92.74 -2.42 91.62 -2.42C87.57 -2.42 84.42 -3.62 82.17 -6.02C79.93 -8.42 78.8 -11.83 78.8 -16.26C78.8 -18.7 79.11 -20.8 79.73 -22.55C80.35 -24.3 81.2 -25.73 82.26 -26.85C83.33 -27.96 84.6 -28.78 86.05 -29.31C87.51 -29.84 89.07 -30.1 90.74 -30.1C92.35 -30.1 93.52 -29.99 94.25 -29.78C94.98 -29.56 95.51 -29.37 95.85 -29.22L96.5 -28.29L96.5 -23.41L99.48 -23.41L99.48 -31.35C98.89 -31.6 98.28 -31.83 97.66 -32.05C97.04 -32.27 96.37 -32.45 95.64 -32.61C94.92 -32.76 94.1 -32.88 93.2 -32.96C92.31 -33.03 91.3 -33.07 90.18 -33.07C87.89 -33.07 85.71 -32.76 83.64 -32.14C81.56 -31.52 79.73 -30.54 78.15 -29.19C76.57 -27.85 75.32 -26.11 74.39 -23.99C73.46 -21.87 73 -19.29 73 -16.26C73 -13.32 73.42 -10.79 74.25 -8.69C75.09 -6.58 76.29 -4.84 77.85 -3.46C79.42 -2.08 81.33 -1.07 83.59 -0.42C85.85 0.23 88.4 0.56 91.25 0.56C92.8 0.56 94.37 0.39 95.94 0.05C97.52 -0.29 98.79 -0.73 99.75 -1.25L99.75 -8.55Z M128.97 -32.52L104.26 -32.52L104.26 -29.91L108.49 -29.91L108.49 -2.6L104.26 -2.6L104.26 0L129.76 0L129.76 -8.08L126.79 -8.08L126.79 -3.53L125.86 -2.6L113.69 -2.6L113.69 -15.28L121.54 -15.28L122.24 -14.54L122.24 -12.59L125.21 -12.59L125.21 -20.53L122.24 -20.53L122.24 -18.58L121.54 -17.88L113.69 -17.88L113.69 -29.91L125.07 -29.91L126 -28.89L126 -24.9L128.97 -24.9Z M146.95 -29.91L151.18 -29.91L151.18 -2.6L146.95 -2.6L146.95 0L173.01 0L173.01 -10.03L169.66 -10.03L169.66 -3.62L168.73 -2.6L156.38 -2.6L156.38 -29.91L161.39 -29.91L161.39 -32.52L146.95 -32.52Z M175.24 -29.91L179.46 -29.91L179.46 -2.6L175.24 -2.6L175.24 0L201.3 0L201.3 -10.03L197.95 -10.03L197.95 -3.62L197.02 -2.6L184.67 -2.6L184.67 -29.91L189.68 -29.91L189.68 -32.52L175.24 -32.52Z M227.26 -8.55L227.26 -4.23L226.61 -3.34C226.24 -3.07 225.68 -2.84 224.92 -2.67C224.16 -2.5 223.22 -2.42 222.11 -2.42C218.05 -2.42 214.9 -3.62 212.65 -6.02C210.41 -8.42 209.29 -11.83 209.29 -16.26C209.29 -18.7 209.6 -20.8 210.21 -22.55C210.83 -24.3 211.68 -25.73 212.75 -26.85C213.81 -27.96 215.08 -28.78 216.53 -29.31C217.99 -29.84 219.55 -30.1 221.22 -30.1C222.83 -30.1 224 -29.99 224.73 -29.78C225.46 -29.56 225.99 -29.37 226.33 -29.22L226.98 -28.29L226.98 -23.41L229.96 -23.41L229.96 -31.35C229.37 -31.6 228.76 -31.83 228.14 -32.05C227.53 -32.27 226.85 -32.45 226.12 -32.61C225.4 -32.76 224.58 -32.88 223.69 -32.96C222.79 -33.03 221.78 -33.07 220.67 -33.07C218.37 -33.07 216.19 -32.76 214.12 -32.14C212.04 -31.52 210.21 -30.54 208.64 -29.19C207.06 -27.85 205.8 -26.11 204.87 -23.99C203.94 -21.87 203.48 -19.29 203.48 -16.26C203.48 -13.32 203.9 -10.79 204.73 -8.69C205.57 -6.58 206.77 -4.84 208.33 -3.46C209.9 -2.08 211.81 -1.07 214.07 -0.42C216.33 0.23 218.89 0.56 221.73 0.56C223.28 0.56 224.85 0.39 226.43 0.05C228.01 -0.29 229.28 -0.73 230.24 -1.25L230.24 -8.55Z"></path></g><g id="SvgjsG6553" class="text" transform="translate(230.73659085442574, 258.1452720536073) scale(1)" light-content="false" fill="#161515"><path d="M-84.95 -16.12C-84.95 -16.67 -84.73 -17.02 -84.3 -17.18C-83.87 -17.33 -83.66 -17.52 -83.66 -17.74C-83.66 -17.92 -83.74 -18.01 -83.92 -18.01L-87.5 -18.01L-94.3 -3.62L-101.32 -18.01L-104.73 -18.01C-104.91 -18.01 -105 -17.92 -105 -17.74C-105 -17.52 -104.79 -17.33 -104.36 -17.18C-103.93 -17.02 -103.72 -16.67 -103.72 -16.12L-103.72 -1.87C-103.72 -1.32 -103.93 -0.96 -104.36 -0.81C-104.79 -0.66 -105 -0.48 -105 -0.27C-105 -0.09 -104.91 0 -104.73 0L-101.47 0C-101.29 0 -101.2 -0.09 -101.2 -0.27C-101.2 -0.48 -101.42 -0.66 -101.84 -0.81C-102.27 -0.96 -102.49 -1.32 -102.49 -1.87L-102.49 -15.01L-95.16 0.38L-94.66 0.38L-87.26 -15.61L-87.26 -1.87C-87.26 -1.32 -87.47 -0.96 -87.9 -0.81C-88.33 -0.66 -88.54 -0.48 -88.54 -0.27C-88.54 -0.09 -88.45 0 -88.27 0L-83.92 0C-83.74 0 -83.66 -0.09 -83.66 -0.27C-83.66 -0.48 -83.87 -0.66 -84.3 -0.81C-84.73 -0.96 -84.95 -1.32 -84.95 -1.87Z M-72.22 -12.26L-72.25 -12.26C-72.53 -12.26 -72.88 -12.19 -73.31 -12.04C-73.76 -11.88 -74.17 -11.73 -74.55 -11.6C-75.18 -11.36 -75.66 -11.19 -75.98 -11.08C-76.3 -10.97 -76.54 -10.84 -76.71 -10.68C-78.11 -9.41 -78.81 -7.84 -78.82 -5.96L-78.82 -5.93C-78.82 -4.22 -78.21 -2.75 -76.97 -1.5C-75.79 -0.29 -74.37 0.32 -72.73 0.32L-72.52 0.32C-70.75 0.27 -69.25 -0.35 -68.02 -1.55C-66.82 -2.73 -66.21 -4.18 -66.21 -5.89L-66.21 -5.96C-66.24 -7.66 -66.83 -9.11 -67.98 -10.33C-69.14 -11.55 -70.55 -12.19 -72.22 -12.26ZM-72.49 -11.4C-71.43 -11.34 -70.52 -10.76 -69.77 -9.67C-69.01 -8.57 -68.64 -7.27 -68.64 -5.77C-68.64 -4.28 -69.01 -3.02 -69.77 -2C-70.48 -1.03 -71.34 -0.55 -72.33 -0.55L-72.51 -0.55C-73.58 -0.6 -74.49 -1.18 -75.24 -2.28C-75.99 -3.38 -76.36 -4.67 -76.36 -6.17C-76.36 -7.67 -75.98 -8.93 -75.22 -9.95C-74.5 -10.92 -73.64 -11.4 -72.64 -11.4Z M-52.31 -1.12L-52.31 -0.17C-52.31 -0.06 -52.24 0 -52.09 0L-48.98 0C-48.8 0 -48.71 -0.09 -48.71 -0.27C-48.71 -0.48 -48.92 -0.66 -49.35 -0.81C-49.78 -0.96 -49.99 -1.32 -49.99 -1.87L-49.99 -18.77C-50.55 -18.58 -51.1 -18.41 -51.65 -18.27C-52.2 -18.12 -52.76 -18.03 -53.32 -18.01C-53.5 -18.01 -53.59 -17.92 -53.59 -17.74C-53.59 -17.52 -53.38 -17.33 -52.95 -17.18C-52.52 -17.02 -52.31 -16.67 -52.31 -16.12L-52.31 -11.8C-52.33 -11.81 -52.37 -11.83 -52.44 -11.85C-53.22 -12.1 -53.88 -12.24 -54.43 -12.26L-54.49 -12.26C-54.62 -12.26 -54.76 -12.24 -54.9 -12.19C-55.59 -11.93 -56.29 -11.67 -56.97 -11.42C-57.66 -11.16 -58.35 -10.9 -59.03 -10.65C-59.26 -10.54 -59.47 -10.43 -59.66 -10.3C-60.2 -9.89 -60.58 -9.5 -60.8 -9.12C-61.26 -8.39 -61.55 -7.67 -61.65 -6.94C-61.71 -6.52 -61.74 -6.09 -61.74 -5.64C-61.74 -5.31 -61.72 -4.96 -61.69 -4.6C-61.57 -3.25 -61.07 -2.1 -60.19 -1.17C-59.31 -0.24 -58.26 0.26 -57.04 0.32L-56.52 0.32C-56.34 0.32 -56.11 0.27 -55.84 0.18ZM-52.31 -9.88L-52.31 -1.87C-52.58 -1.77 -52.92 -1.64 -53.34 -1.48C-53.76 -1.32 -54.06 -1.21 -54.26 -1.14C-54.52 -1.05 -54.74 -0.99 -54.93 -0.97C-55.04 -0.97 -55.15 -0.96 -55.25 -0.96C-55.58 -0.96 -55.91 -1.01 -56.24 -1.1C-57.1 -1.34 -57.82 -1.86 -58.39 -2.66C-58.96 -3.42 -59.3 -4.43 -59.39 -5.66C-59.41 -5.85 -59.42 -6.05 -59.42 -6.23C-59.42 -6.83 -59.34 -7.44 -59.2 -8.04C-59.02 -8.85 -58.66 -9.53 -58.13 -10.09C-58.01 -10.23 -57.84 -10.34 -57.62 -10.43C-57.31 -10.54 -57.01 -10.65 -56.7 -10.77C-56.4 -10.88 -56.1 -11 -55.79 -11.11C-55.62 -11.18 -55.45 -11.21 -55.27 -11.21L-55.22 -11.21C-54.79 -11.19 -54.29 -11.05 -53.73 -10.79C-53.17 -10.53 -52.7 -10.23 -52.31 -9.88Z M-43.46 -7.07C-43.54 -6.58 -43.58 -6.11 -43.58 -5.66C-43.58 -4.15 -43.15 -2.85 -42.28 -1.76C-41.16 -0.34 -39.48 0.38 -37.24 0.4C-35.64 0.4 -34.38 0 -33.45 -0.81C-33.39 -0.86 -33.34 -0.92 -33.27 -0.99C-33.21 -1.06 -33.12 -1.19 -33.02 -1.4C-32.91 -1.6 -32.86 -1.76 -32.86 -1.87C-32.86 -1.92 -32.87 -1.96 -32.89 -1.99C-32.92 -2.01 -32.95 -2.01 -33 -2.01C-33.17 -2.01 -33.5 -1.88 -33.98 -1.62C-34.86 -1.15 -35.7 -0.91 -36.51 -0.91C-36.82 -0.91 -37.12 -0.94 -37.42 -1.01C-38.45 -1.22 -39.3 -1.78 -39.97 -2.69C-40.65 -3.6 -41 -4.75 -41.03 -6.13L-32.86 -6.13C-32.52 -6.13 -32.35 -6.2 -32.33 -6.34C-32.31 -6.48 -32.3 -6.73 -32.29 -7.07C-32.29 -8.63 -32.74 -9.9 -33.62 -10.88C-34.51 -11.84 -35.8 -12.31 -37.49 -12.31L-37.54 -12.31C-39.2 -12.3 -40.55 -11.81 -41.57 -10.86C-42.59 -9.92 -43.22 -8.65 -43.46 -7.07ZM-41.03 -7.07C-40.99 -8.1 -40.71 -9.04 -40.19 -9.88C-39.67 -10.71 -38.81 -11.15 -37.6 -11.19L-37.46 -11.19C-36.25 -11.19 -35.42 -10.77 -34.97 -9.94C-34.5 -9.07 -34.27 -8.11 -34.27 -7.07Z M-23.7 -7.63C-23.67 -8.43 -23.52 -9.12 -23.24 -9.7C-22.97 -10.29 -22.5 -10.62 -21.85 -10.7C-21.76 -10.71 -21.66 -10.71 -21.57 -10.71C-20.62 -10.71 -19.98 -10.09 -19.65 -8.84L-19.06 -8.84L-18.77 -12.06C-19.26 -12.23 -19.66 -12.31 -19.98 -12.31C-20.13 -12.31 -20.27 -12.3 -20.38 -12.26C-20.74 -12.14 -21.26 -11.96 -21.92 -11.71L-23.7 -11.03L-23.7 -12.72C-24.26 -12.54 -24.81 -12.37 -25.36 -12.22C-25.91 -12.07 -26.47 -11.98 -27.03 -11.95C-27.21 -11.95 -27.3 -11.86 -27.3 -11.69C-27.3 -11.46 -27.09 -11.27 -26.66 -11.12C-26.23 -10.97 -26.02 -10.62 -26.02 -10.08L-26.02 -1.87C-26.02 -1.32 -26.23 -0.96 -26.66 -0.81C-27.09 -0.66 -27.3 -0.48 -27.3 -0.27C-27.3 -0.09 -27.21 0 -27.03 0L-22.69 0C-22.51 0 -22.43 -0.09 -22.43 -0.27C-22.43 -0.48 -22.64 -0.66 -23.06 -0.81C-23.49 -0.96 -23.7 -1.32 -23.7 -1.87Z M-10.94 -10.94L-10.94 -12.72C-11.49 -12.54 -12.04 -12.37 -12.59 -12.22C-13.14 -12.07 -13.7 -11.98 -14.26 -11.95C-14.44 -11.95 -14.53 -11.86 -14.53 -11.69C-14.53 -11.46 -14.32 -11.27 -13.89 -11.12C-13.46 -10.97 -13.25 -10.62 -13.25 -10.08L-13.25 -1.87C-13.25 -1.32 -13.46 -0.96 -13.89 -0.81C-14.32 -0.66 -14.53 -0.48 -14.53 -0.27C-14.53 -0.09 -14.44 0 -14.26 0L-9.91 0C-9.74 0 -9.66 -0.09 -9.66 -0.27C-9.66 -0.48 -9.87 -0.66 -10.3 -0.81C-10.73 -0.96 -10.94 -1.32 -10.94 -1.87L-10.94 -10.18C-10.78 -10.24 -10.59 -10.31 -10.39 -10.39C-10.18 -10.47 -9.94 -10.56 -9.65 -10.67C-9.36 -10.77 -9.13 -10.86 -8.94 -10.93C-8.45 -11.09 -8 -11.17 -7.59 -11.17C-6.87 -11.17 -6.27 -10.93 -5.77 -10.44C-4.99 -9.68 -4.6 -8.36 -4.6 -6.49L-4.6 -0.17C-4.6 -0.06 -4.53 0 -4.38 0L-1.27 0C-1.1 0 -1.01 -0.09 -1.01 -0.27C-1.01 -0.48 -1.22 -0.66 -1.65 -0.81C-2.08 -0.96 -2.29 -1.32 -2.29 -1.87L-2.29 -6.49C-2.29 -9.11 -2.81 -10.81 -3.85 -11.61C-4.5 -12.1 -5.18 -12.34 -5.9 -12.34C-6.01 -12.34 -6.12 -12.34 -6.22 -12.33C-7.07 -12.24 -7.88 -12.06 -8.67 -11.79C-8.99 -11.68 -9.34 -11.55 -9.69 -11.42C-10.05 -11.28 -10.47 -11.12 -10.94 -10.94Z M31.24 -10.15C31.12 -12.08 30.66 -13.59 29.88 -14.67C29.11 -15.75 28.13 -16.55 26.95 -17.07C25.69 -17.61 24.28 -17.93 22.71 -18.02C21.39 -18.09 20.07 -18.12 18.76 -18.12L18.01 -18.12C17.31 -18.11 16.59 -18.09 15.85 -18.06C15.48 -18.05 15.11 -18.05 14.75 -18.05C14.38 -18.05 14.02 -18.05 13.66 -18.06C13.48 -18.06 13.39 -17.97 13.39 -17.79C13.39 -17.57 13.6 -17.38 14.03 -17.23C14.46 -17.08 14.67 -16.73 14.67 -16.19L14.67 -1.78C14.67 -1.23 14.46 -0.87 14.03 -0.72C13.6 -0.56 13.39 -0.38 13.39 -0.17C13.39 0.02 13.48 0.12 13.66 0.12C14.21 0.06 14.65 0.04 14.99 0.04L15.3 0.04C15.67 0.06 16.21 0.08 16.92 0.08L18.42 0.08C18.85 0.09 19.32 0.09 19.82 0.09L20.84 0.09C23.59 0.06 25.93 -0.7 27.84 -2.17C28.97 -3.04 29.85 -4.15 30.49 -5.5C31.01 -6.63 31.27 -7.91 31.27 -9.33C31.27 -9.59 31.26 -9.86 31.24 -10.15ZM17.12 -16.84C18.22 -17.02 19.3 -17.11 20.35 -17.11C20.9 -17.11 21.44 -17.09 21.98 -17.05C23.56 -16.9 24.89 -16.42 26 -15.6C26.75 -15.03 27.36 -14.28 27.81 -13.35C28.27 -12.41 28.52 -11.25 28.55 -9.86L28.55 -9.44C28.55 -7.59 28.23 -6.07 27.6 -4.87C26.91 -3.57 25.96 -2.61 24.75 -1.98C23.74 -1.45 22.59 -1.13 21.28 -1.03C20.92 -1 20.55 -0.99 20.17 -0.99C19.2 -0.99 18.18 -1.09 17.12 -1.28Z M35.87 -7.07C35.8 -6.58 35.76 -6.11 35.76 -5.66C35.76 -4.15 36.19 -2.85 37.05 -1.76C38.17 -0.34 39.85 0.38 42.09 0.4C43.69 0.4 44.96 0 45.89 -0.81C45.94 -0.86 46 -0.92 46.06 -0.99C46.13 -1.06 46.21 -1.19 46.31 -1.4C46.42 -1.6 46.48 -1.76 46.48 -1.87C46.48 -1.92 46.47 -1.96 46.44 -1.99C46.42 -2.01 46.38 -2.01 46.34 -2.01C46.17 -2.01 45.84 -1.88 45.35 -1.62C44.48 -1.15 43.64 -0.91 42.82 -0.91C42.52 -0.91 42.21 -0.94 41.91 -1.01C40.89 -1.22 40.04 -1.78 39.36 -2.69C38.69 -3.6 38.33 -4.75 38.31 -6.13L46.48 -6.13C46.81 -6.13 46.99 -6.2 47.01 -6.34C47.02 -6.48 47.04 -6.73 47.04 -7.07C47.04 -8.63 46.6 -9.9 45.71 -10.88C44.82 -11.84 43.53 -12.31 41.85 -12.31L41.8 -12.31C40.13 -12.3 38.79 -11.81 37.76 -10.86C36.74 -9.92 36.11 -8.65 35.87 -7.07ZM38.31 -7.07C38.34 -8.1 38.62 -9.04 39.14 -9.88C39.66 -10.71 40.53 -11.15 41.73 -11.19L41.88 -11.19C43.08 -11.19 43.91 -10.77 44.36 -9.94C44.83 -9.07 45.07 -8.11 45.07 -7.07Z M56.75 -12.29C56.65 -12.3 56.55 -12.3 56.44 -12.3C55.32 -12.3 54.28 -12.04 53.35 -11.52C52.34 -10.95 51.82 -10.01 51.81 -8.68L51.81 -8.62C51.81 -7.64 52.18 -6.91 52.92 -6.41C53.66 -5.91 54.46 -5.54 55.3 -5.31C55.99 -5.11 56.78 -4.89 57.69 -4.63C58.56 -4.38 59 -3.8 59 -2.87L59 -2.8C58.96 -1.99 58.55 -1.44 57.77 -1.13C57.04 -0.85 56.37 -0.71 55.76 -0.71L55.61 -0.71C54.74 -0.73 54.02 -0.92 53.45 -1.28C52.88 -1.63 52.4 -2.23 52.01 -3.08C51.91 -3.27 51.82 -3.37 51.74 -3.39L51.71 -3.39C51.57 -3.39 51.49 -3.32 51.48 -3.19L51.44 -2.94L52.48 -0.12C53.44 0.16 54.44 0.3 55.49 0.3L55.84 0.3C56.6 0.27 57.29 0.15 57.92 -0.05C58.92 -0.4 59.68 -0.92 60.22 -1.6C60.7 -2.24 60.95 -2.87 60.95 -3.5L60.95 -3.63C60.86 -4.96 60.37 -5.84 59.46 -6.26C58.56 -6.68 57.56 -7.01 56.46 -7.26C55.65 -7.44 54.95 -7.68 54.34 -7.99C53.86 -8.22 53.62 -8.61 53.62 -9.15C53.62 -9.3 53.64 -9.47 53.69 -9.66C53.81 -10.22 54.13 -10.64 54.66 -10.92C55.17 -11.18 55.68 -11.31 56.21 -11.31L56.26 -11.31C56.95 -11.29 57.59 -11.06 58.18 -10.63C58.77 -10.2 59.21 -9.66 59.52 -9.02C59.61 -8.82 59.7 -8.72 59.8 -8.71L59.84 -8.71C59.96 -8.71 60.03 -8.77 60.05 -8.9L60.32 -11.15C59.2 -11.84 58.01 -12.22 56.75 -12.29Z M68.31 -17.96C67.37 -17.96 66.91 -17.49 66.91 -16.55C66.91 -15.6 67.37 -15.12 68.31 -15.12C69.24 -15.12 69.7 -15.6 69.7 -16.55C69.7 -17.49 69.24 -17.96 68.31 -17.96ZM69.46 -1.87L69.46 -12.72C68.91 -12.54 68.36 -12.37 67.81 -12.22C67.26 -12.07 66.7 -11.98 66.14 -11.95C65.96 -11.95 65.87 -11.86 65.87 -11.69C65.87 -11.46 66.08 -11.27 66.51 -11.12C66.94 -10.97 67.15 -10.62 67.15 -10.08L67.15 -1.87C67.15 -1.32 66.94 -0.96 66.51 -0.81C66.08 -0.66 65.87 -0.48 65.87 -0.27C65.87 -0.09 65.96 0 66.14 0L70.49 0C70.66 0 70.74 -0.09 70.74 -0.27C70.74 -0.48 70.53 -0.66 70.1 -0.81C69.67 -0.96 69.46 -1.32 69.46 -1.87Z M84.89 -2.55L84.88 -2.55L84.88 -1.86C84.61 -1.76 84.27 -1.63 83.86 -1.48C83.44 -1.32 83.14 -1.21 82.94 -1.14C82.68 -1.05 82.46 -0.99 82.27 -0.97C82.16 -0.97 82.05 -0.96 81.95 -0.96C81.62 -0.96 81.29 -1.01 80.96 -1.1C80.1 -1.34 79.38 -1.86 78.81 -2.66C78.24 -3.42 77.9 -4.43 77.81 -5.66C77.79 -5.85 77.78 -6.05 77.78 -6.23C77.78 -6.83 77.86 -7.44 78 -8.04C78.18 -8.85 78.54 -9.53 79.07 -10.09C79.19 -10.23 79.36 -10.34 79.58 -10.43C79.89 -10.54 80.19 -10.65 80.5 -10.77C80.8 -10.88 81.11 -11 81.41 -11.11C81.58 -11.18 81.76 -11.21 81.93 -11.21L81.98 -11.21C82.42 -11.19 82.93 -11.05 83.5 -10.77C84.08 -10.49 84.54 -10.19 84.89 -9.86ZM84.88 -1.12L84.89 3.04C84.89 3.25 84.82 3.66 84.68 4.28C84.55 4.91 84.27 5.32 83.86 5.53C83.67 5.6 83.5 5.66 83.34 5.72C83.17 5.78 83.04 5.83 82.94 5.87C82.68 5.96 82.46 6.01 82.27 6.03C82.16 6.04 82.05 6.04 81.93 6.04C81.61 6.04 81.29 6 80.96 5.91C80.11 5.67 79.39 5.15 78.81 4.36C78.55 4.01 78.35 3.62 78.19 3.18C77.42 3.46 76.65 3.75 75.91 4.04C76.18 4.74 76.55 5.34 77.01 5.85C77.9 6.8 78.95 7.29 80.16 7.34C80.28 7.35 80.46 7.35 80.68 7.35C80.86 7.35 81.09 7.3 81.36 7.21L84.89 5.89C85.63 5.61 86.21 5.3 86.61 4.95C87.01 4.6 87.21 3.72 87.21 2.31L87.21 -11.8C87.21 -11.9 87.12 -11.99 86.93 -12.06C86.89 -12.07 86.84 -12.08 86.8 -12.08C86.73 -12.08 86.68 -12.05 86.63 -11.99C86.56 -11.89 86.43 -11.76 86.25 -11.61C86.15 -11.53 86.03 -11.49 85.89 -11.49C85.8 -11.49 85.69 -11.51 85.58 -11.54C85.31 -11.64 85.08 -11.72 84.89 -11.8C84.87 -11.81 84.83 -11.83 84.76 -11.85C83.98 -12.1 83.32 -12.24 82.77 -12.26L82.71 -12.26C82.58 -12.26 82.44 -12.24 82.3 -12.19C81.61 -11.93 80.91 -11.67 80.23 -11.42C79.54 -11.16 78.85 -10.9 78.17 -10.65C77.94 -10.54 77.73 -10.43 77.54 -10.3C77 -9.89 76.62 -9.5 76.4 -9.12C75.94 -8.39 75.65 -7.67 75.55 -6.94C75.49 -6.52 75.46 -6.09 75.46 -5.64C75.46 -5.31 75.48 -4.96 75.51 -4.6C75.63 -3.25 76.13 -2.1 77.01 -1.17C77.89 -0.24 78.94 0.26 80.16 0.32L80.68 0.32C80.86 0.32 81.09 0.27 81.36 0.18Z M96.08 -10.94L96.08 -12.72C95.54 -12.54 94.99 -12.37 94.44 -12.22C93.88 -12.07 93.33 -11.98 92.76 -11.95C92.58 -11.95 92.49 -11.86 92.49 -11.69C92.49 -11.46 92.71 -11.27 93.13 -11.12C93.56 -10.97 93.78 -10.62 93.78 -10.08L93.78 -1.87C93.78 -1.32 93.56 -0.96 93.13 -0.81C92.71 -0.66 92.49 -0.48 92.49 -0.27C92.49 -0.09 92.58 0 92.76 0L97.11 0C97.28 0 97.37 -0.09 97.37 -0.27C97.37 -0.48 97.15 -0.66 96.73 -0.81C96.3 -0.96 96.08 -1.32 96.08 -1.87L96.08 -10.18C96.25 -10.24 96.43 -10.31 96.64 -10.39C96.84 -10.47 97.09 -10.56 97.37 -10.67C97.66 -10.77 97.9 -10.86 98.09 -10.93C98.57 -11.09 99.02 -11.17 99.43 -11.17C100.15 -11.17 100.76 -10.93 101.25 -10.44C102.03 -9.68 102.42 -8.36 102.42 -6.49L102.42 -0.17C102.42 -0.06 102.49 0 102.64 0L105.76 0C105.93 0 106.01 -0.09 106.01 -0.27C106.01 -0.48 105.8 -0.66 105.37 -0.81C104.94 -0.96 104.73 -1.32 104.73 -1.87L104.73 -6.49C104.73 -9.11 104.21 -10.81 103.18 -11.61C102.53 -12.1 101.84 -12.34 101.13 -12.34C101.01 -12.34 100.91 -12.34 100.8 -12.33C99.96 -12.24 99.14 -12.06 98.35 -11.79C98.03 -11.68 97.69 -11.55 97.33 -11.42C96.97 -11.28 96.55 -11.12 96.08 -10.94Z"></path></g></g></g></svg>